<?xml version="1.0" encoding="UTF-8" standalone="no"?>
<!-- Created with Inkscape (http://www.inkscape.org/) -->

<svg
   xmlns:dc="http://purl.org/dc/elements/1.1/"
   xmlns:cc="http://creativecommons.org/ns#"
   xmlns:rdf="http://www.w3.org/1999/02/22-rdf-syntax-ns#"
   xmlns:svg="http://www.w3.org/2000/svg"
   xmlns="http://www.w3.org/2000/svg"
   xmlns:xlink="http://www.w3.org/1999/xlink"
   xmlns:sodipodi="http://sodipodi.sourceforge.net/DTD/sodipodi-0.dtd"
   xmlns:inkscape="http://www.inkscape.org/namespaces/inkscape"
   width="256"
   height="256"
   id="svg2"
   version="1.1"
   inkscape:version="0.48.4 r9939"
   sodipodi:docname="dklang-icon.svg"
   inkscape:export-filename="/home/dk/Tmp/dklang-icon.png"
   inkscape:export-xdpi="22.497076"
   inkscape:export-ydpi="22.497076">
  <defs
     id="defs4">
    <linearGradient
       id="linearGradient3855">
      <stop
         style="stop-color:#f5f090;stop-opacity:1"
         offset="0"
         id="stop3857" />
      <stop
         style="stop-color:#ede333;stop-opacity:1"
         offset="1"
         id="stop3859" />
    </linearGradient>
    <linearGradient
       inkscape:collect="always"
       xlink:href="#linearGradient3855"
       id="linearGradient3861"
       x1="-285.20264"
       y1="-161.48573"
       x2="515.81909"
       y2="630.02368"
       gradientUnits="userSpaceOnUse" />
    <linearGradient
       inkscape:collect="always"
       xlink:href="#linearGradient3855"
       id="linearGradient3875"
       gradientUnits="userSpaceOnUse"
       x1="-285.20264"
       y1="-161.48573"
       x2="515.81909"
       y2="630.02368" />
  </defs>
  <sodipodi:namedview
     id="base"
     pagecolor="#ffffff"
     bordercolor="#666666"
     borderopacity="1.0"
     inkscape:pageopacity="0.0"
     inkscape:pageshadow="2"
     inkscape:zoom="4.7929688"
     inkscape:cx="128"
     inkscape:cy="128"
     inkscape:document-units="px"
     inkscape:current-layer="layer1"
     showgrid="false"
     inkscape:window-width="2495"
     inkscape:window-height="1416"
     inkscape:window-x="65"
     inkscape:window-y="24"
     inkscape:window-maximized="1"
     fit-margin-top="8"
     fit-margin-left="8"
     fit-margin-right="8"
     fit-margin-bottom="8" />
  <metadata
     id="metadata7">
    <rdf:RDF>
      <cc:Work
         rdf:about="">
        <dc:format>image/svg+xml</dc:format>
        <dc:type
           rdf:resource="http://purl.org/dc/dcmitype/StillImage" />
        <dc:title></dc:title>
      </cc:Work>
    </rdf:RDF>
  </metadata>
  <g
     inkscape:label="Layer 1"
     inkscape:groupmode="layer"
     id="layer1"
     transform="translate(-540.04289,-393.46191)">
    <g
       id="g3869"
       transform="matrix(2.6365668,0,0,2.6365668,-896.93306,-1049.7715)">
      <path
         transform="matrix(0.07832896,0,0,0.07832896,583.27676,578.40431)"
         d="m 306.8857,699.305 c -76.86025,28.3602 16.02837,67.04599 -64.32211,83.03343 -80.35051,15.98745 -9.34511,-55.30855 -91.20735,-52.08752 -81.862228,3.22103 -5.47447,68.71756 -86.832711,59.09286 -81.358266,-9.6247 8.203557,-55.48935 -70.6474183,-77.7228 -78.8509547,-22.23343 -26.4414167,63.66258 -100.8435107,29.36787 -74.40211,-34.29472 24.949203,-50.23847 -43.17202,-95.75003 -68.1212,-45.51153 -44.8201,52.37587 -104.98305,-3.23185 -60.16296,-55.60774 39.25265,-40.0699 -11.47064,-104.40458 -50.72328,-64.33465 -58.81148,35.96224 -98.84611,-35.51522 -40.03464,-71.47748 49.71376,-25.97901 21.35355,-102.83928 -28.3602,-76.86024 -67.04599,16.02837 -83.03343,-64.32211 -15.98745,-80.35051 55.30855,-9.34511 52.08752,-91.20735 -3.22103,-81.86223 -68.71756,-5.47447 -59.09286,-86.83271 9.6247,-81.358264 55.48935,8.20356 77.7228,-70.647417 22.23343,-78.8509541 -63.66258,-26.441417 -29.36787,-100.843508 34.29472,-74.402112 50.23847,24.9492 95.75002,-43.172023 45.51154,-68.121202 -52.37586,-44.820102 3.23186,-104.983042 55.60774,-60.16296 40.0699,39.25264 104.40458,-11.47065 64.33465,-50.72328 -35.96224,-58.81148 35.51522,-98.84611 71.477479,-40.03464 25.97901,49.71376 102.839276,21.35355 76.860248,-28.3602 -16.028369,-67.04598 64.322114,-83.03343 80.35051,-15.98745 9.345107,55.30855 91.20735,52.08752 81.86223,-3.22103 5.47447,-68.71756 86.83271,-59.09286 81.35826,9.62471 -8.20356,55.48936 70.64742,77.7228 78.85095,22.23343 26.44141,-63.66258 100.84351,-29.36787 74.40211,34.29473 -24.94921,50.23848 43.17202,95.75003 68.1212,45.51154 44.8201,-52.37587 104.98304,3.23186 60.16296,55.60773 -39.25264,40.0699 11.47065,104.404569 50.72328,64.334655 58.81148,-35.962229 98.84611,35.515225 40.03464,71.477478 -49.71376,25.979007 -21.35355,102.839275 28.3602,76.860251 67.04598,-16.02837 83.03343,64.322111 15.98745,80.35051 -55.30855,9.34511 -52.08752,91.20735 3.22103,81.86223 68.71756,5.47447 59.09286,86.83271 -9.62471,81.35827 -55.48936,-8.20356 -77.7228,70.64742 -22.23343,78.85095 63.66258,26.44142 29.36787,100.84351 -34.29473,74.40211 -50.23848,-24.9492 -95.75003,43.17202 -45.51154,68.1212 52.37587,44.8201 -3.23186,104.98305 -55.60773,60.16296 -40.0699,-39.25265 -104.40457,11.47064 -64.33465,50.72328 35.96223,58.81148 -35.51522,98.84611 C 338.2475,760.69319 383.74597,670.94479 306.8857,699.305 z"
         inkscape:randomized="0"
         inkscape:rounded="0.78"
         inkscape:flatsided="false"
         sodipodi:arg2="1.37439"
         sodipodi:arg1="1.2173104"
         sodipodi:r2="569.4967"
         sodipodi:r1="506.85205"
         sodipodi:cy="223.79076"
         sodipodi:cx="131.42857"
         sodipodi:sides="20"
         id="path2985"
         style="fill:url(#linearGradient3875);fill-opacity:1;stroke:#ba8118;stroke-width:29.08247566;stroke-miterlimit:4;stroke-opacity:1;stroke-dasharray:none"
         sodipodi:type="star" />
      <path
         transform="matrix(1.5086648,0.46991514,-0.46991514,1.5086648,-49.181503,-517.44589)"
         d="m 599.14673,544.12916 -9.40429,-1.09353 5.64916,-7.59759 5.64917,-7.5976 3.75512,8.69112 3.75513,8.69112 z"
         inkscape:randomized="0"
         inkscape:rounded="0"
         inkscape:flatsided="false"
         sodipodi:arg2="2.7337531"
         sodipodi:arg1="1.6865555"
         sodipodi:r2="10.932306"
         sodipodi:r1="5.4661531"
         sodipodi:cy="538.69958"
         sodipodi:cx="599.77808"
         sodipodi:sides="3"
         id="path3863"
         style="fill:#0064d5;fill-opacity:1;stroke:#002b5d;stroke-opacity:1;stroke-width:0.96011119000000000;stroke-miterlimit:4;stroke-dasharray:none"
         sodipodi:type="star" />
      <path
         transform="matrix(0.7987013,0,0,0.7987013,129.97515,132.88654)"
         d="m 617.45575,598.04608 c 0,10.73942 -8.70602,19.44544 -19.44544,19.44544 -10.73941,0 -19.44543,-8.70602 -19.44543,-19.44544 0,-10.73942 8.70602,-19.44543 19.44543,-19.44543 10.73942,0 19.44544,8.70601 19.44544,19.44543 z"
         sodipodi:ry="19.445436"
         sodipodi:rx="19.445436"
         sodipodi:cy="598.04608"
         sodipodi:cx="598.01031"
         id="path3865"
         style="fill:#0b9d07;fill-opacity:1;stroke:#065603;stroke-opacity:1;stroke-width:1.89948917000000006;stroke-miterlimit:4;stroke-dasharray:none"
         sodipodi:type="arc" />
      <rect
         y="585.16663"
         x="560.63464"
         height="26.516504"
         width="26.516504"
         id="rect3867"
         style="fill:#cc0803;fill-opacity:1;stroke:#6f0502;stroke-opacity:1;stroke-width:1.51712446999999995;stroke-miterlimit:4;stroke-dasharray:none" />
    </g>
  </g>
</svg>
