<?xml version="1.0" encoding="UTF-8" standalone="no"?>
<!-- Generator: Adobe Illustrator 19.0.0, SVG Export Plug-In . SVG Version: 6.00 Build 0)  -->

<svg
   version="1.1"
   id="Capa_1"
   x="0px"
   y="0px"
   viewBox="0 0 60 60"
   style="enable-background:new 0 0 60 60;"
   xml:space="preserve"
   sodipodi:docname="asuite.svg"
   inkscape:version="1.2.1 (9c6d41e410, 2022-07-14)"
   xmlns:inkscape="http://www.inkscape.org/namespaces/inkscape"
   xmlns:sodipodi="http://sodipodi.sourceforge.net/DTD/sodipodi-0.dtd"
   xmlns="http://www.w3.org/2000/svg"
   xmlns:svg="http://www.w3.org/2000/svg"><defs
   id="defs2801" /><sodipodi:namedview
   id="namedview2799"
   pagecolor="#ffffff"
   bordercolor="#e0e0d1"
   borderopacity="0.25"
   inkscape:showpageshadow="2"
   inkscape:pageopacity="0.0"
   inkscape:pagecheckerboard="0"
   inkscape:deskcolor="#d1d1d1"
   showgrid="false"
   inkscape:zoom="13.566667"
   inkscape:cx="13.452088"
   inkscape:cy="30.110564"
   inkscape:window-width="1920"
   inkscape:window-height="1001"
   inkscape:window-x="-9"
   inkscape:window-y="-9"
   inkscape:window-maximized="1"
   inkscape:current-layer="Capa_1" />
<g
   id="g2766"
   style="fill:#e0e0d1;fill-opacity:1">
	<path
   d="M23.429,17H47c0.552,0,1-0.447,1-1s-0.448-1-1-1H23.429c-0.552,0-1,0.447-1,1S22.877,17,23.429,17z"
   id="path2752"
   style="fill:#e0e0d1;fill-opacity:1" />
	<path
   d="M23.429,32H47c0.552,0,1-0.447,1-1s-0.448-1-1-1H23.429c-0.552,0-1,0.447-1,1S22.877,32,23.429,32z"
   id="path2754"
   style="fill:#e0e0d1;fill-opacity:1" />
	<path
   d="M23.429,47H47c0.552,0,1-0.447,1-1s-0.448-1-1-1H23.429c-0.552,0-1,0.447-1,1S22.877,47,23.429,47z"
   id="path2756"
   style="fill:#e0e0d1;fill-opacity:1" />
	<path
   d="M59,0H1C0.448,0,0,0.447,0,1v58c0,0.553,0.448,1,1,1h58c0.552,0,1-0.447,1-1V1C60,0.447,59.552,0,59,0z M58,58H2V2h56V58z"
   id="path2758"
   style="fill:#e0e0d1;fill-opacity:1" />
	<polygon
   points="12.501,18.474 14.929,17.197 17.357,18.474 16.894,15.77 18.858,13.854 16.143,13.46 14.929,11 13.715,13.46    11,13.854 12.965,15.77  "
   id="polygon2760"
   style="fill:#e0e0d1;fill-opacity:1" />
	<polygon
   points="12.501,33.557 14.929,32.28 17.357,33.557 16.894,30.853 18.858,28.938 16.143,28.543 14.929,26.083    13.715,28.543 11,28.938 12.965,30.853  "
   id="polygon2762"
   style="fill:#e0e0d1;fill-opacity:1" />
	<polygon
   points="12.501,49 14.929,47.723 17.357,49 16.894,46.296 18.858,44.381 16.143,43.986 14.929,41.526 13.715,43.986    11,44.381 12.965,46.296  "
   id="polygon2764"
   style="fill:#e0e0d1;fill-opacity:1" />
</g>
<g
   id="g2768">
</g>
<g
   id="g2770">
</g>
<g
   id="g2772">
</g>
<g
   id="g2774">
</g>
<g
   id="g2776">
</g>
<g
   id="g2778">
</g>
<g
   id="g2780">
</g>
<g
   id="g2782">
</g>
<g
   id="g2784">
</g>
<g
   id="g2786">
</g>
<g
   id="g2788">
</g>
<g
   id="g2790">
</g>
<g
   id="g2792">
</g>
<g
   id="g2794">
</g>
<g
   id="g2796">
</g>
</svg>
