<?xml version="1.0" encoding="UTF-8" standalone="no"?>
<!-- Generator: Adobe Illustrator 19.0.0, SVG Export Plug-In . SVG Version: 6.00 Build 0)  -->

<svg
   version="1.1"
   id="Capa_1"
   x="0px"
   y="0px"
   viewBox="0 0 60 60"
   style="enable-background:new 0 0 60 60;"
   xml:space="preserve"
   sodipodi:docname="documents.svg"
   inkscape:version="1.2.1 (9c6d41e410, 2022-07-14)"
   xmlns:inkscape="http://www.inkscape.org/namespaces/inkscape"
   xmlns:sodipodi="http://sodipodi.sourceforge.net/DTD/sodipodi-0.dtd"
   xmlns="http://www.w3.org/2000/svg"
   xmlns:svg="http://www.w3.org/2000/svg"><defs
   id="defs4469" /><sodipodi:namedview
   id="namedview4467"
   pagecolor="#ffffff"
   bordercolor="#e0e0d1"
   borderopacity="0.25"
   inkscape:showpageshadow="2"
   inkscape:pageopacity="0.0"
   inkscape:pagecheckerboard="0"
   inkscape:deskcolor="#d1d1d1"
   showgrid="false"
   inkscape:zoom="13.566667"
   inkscape:cx="13.452088"
   inkscape:cy="30.110564"
   inkscape:window-width="1920"
   inkscape:window-height="1001"
   inkscape:window-x="-9"
   inkscape:window-y="-9"
   inkscape:window-maximized="1"
   inkscape:current-layer="Capa_1" />
<g
   id="g4434"
   style="fill:#e0e0d1;fill-opacity:1"
   transform="matrix(1.2744523,0,0,1,-8.2704269,0)">
	<path
   d="M 38.914,0 H 6.5 v 60 h 47 V 14.586 Z M 39.5,3.414 50.086,14 H 39.5 Z M 8.5,58 V 2 h 29 v 14 h 14 v 42 z"
   id="path4404"
   style="fill:#e0e0d1;fill-opacity:1" />
	<path
   d="m 16.5,17 h 9 c 0.552,0 1,-0.447 1,-1 0,-0.553 -0.448,-1 -1,-1 h -9 c -0.552,0 -1,0.447 -1,1 0,0.553 0.448,1 1,1 z"
   id="path4406"
   style="fill:#e0e0d1;fill-opacity:1" />
	<path
   d="m 33.5,37 h -17 c -0.552,0 -1,0.447 -1,1 0,0.553 0.448,1 1,1 h 17 c 0.552,0 1,-0.447 1,-1 0,-0.553 -0.448,-1 -1,-1 z"
   id="path4408"
   style="fill:#e0e0d1;fill-opacity:1" />
	<path
   d="m 43.5,30 h -7 c -0.552,0 -1,0.447 -1,1 0,0.553 0.448,1 1,1 h 7 c 0.552,0 1,-0.447 1,-1 0,-0.553 -0.448,-1 -1,-1 z"
   id="path4410"
   style="fill:#e0e0d1;fill-opacity:1" />
	<path
   d="m 16.5,25 h 5 c 0.552,0 1,-0.447 1,-1 0,-0.553 -0.448,-1 -1,-1 h -5 c -0.552,0 -1,0.447 -1,1 0,0.553 0.448,1 1,1 z"
   id="path4412"
   style="fill:#e0e0d1;fill-opacity:1" />
	<path
   d="m 31.5,25 h 7 c 0.552,0 1,-0.447 1,-1 0,-0.553 -0.448,-1 -1,-1 h -7 c -0.552,0 -1,0.447 -1,1 0,0.553 0.448,1 1,1 z"
   id="path4414"
   style="fill:#e0e0d1;fill-opacity:1" />
	<path
   d="m 25.5,24 c 0,0.26 0.11,0.52 0.29,0.71 0.19,0.18 0.45,0.29 0.71,0.29 0.26,0 0.52,-0.11 0.71,-0.29 0.18,-0.19 0.29,-0.45 0.29,-0.71 0,-0.261 -0.11,-0.521 -0.29,-0.71 -0.37,-0.37 -1.04,-0.37 -1.42,0 -0.18,0.189 -0.29,0.449 -0.29,0.71 z"
   id="path4416"
   style="fill:#e0e0d1;fill-opacity:1" />
	<path
   d="m 21.5,30 c -0.552,0 -1,0.447 -1,1 0,0.553 0.448,1 1,1 h 10 c 0.552,0 1,-0.447 1,-1 0,-0.553 -0.448,-1 -1,-1 z"
   id="path4418"
   style="fill:#e0e0d1;fill-opacity:1" />
	<path
   d="m 16.5,32 c 0.26,0 0.52,-0.11 0.71,-0.29 0.18,-0.19 0.29,-0.45 0.29,-0.71 0,-0.261 -0.11,-0.521 -0.29,-0.71 -0.37,-0.37 -1.05,-0.37 -1.42,0 -0.18,0.189 -0.29,0.439 -0.29,0.71 0,0.26 0.11,0.52 0.29,0.71 0.19,0.18 0.45,0.29 0.71,0.29 z"
   id="path4420"
   style="fill:#e0e0d1;fill-opacity:1" />
	<path
   d="m 43.5,44 h -7 c -0.552,0 -1,0.447 -1,1 0,0.553 0.448,1 1,1 h 7 c 0.552,0 1,-0.447 1,-1 0,-0.553 -0.448,-1 -1,-1 z"
   id="path4422"
   style="fill:#e0e0d1;fill-opacity:1" />
	<path
   d="m 31.5,44 h -10 c -0.552,0 -1,0.447 -1,1 0,0.553 0.448,1 1,1 h 10 c 0.552,0 1,-0.447 1,-1 0,-0.553 -0.448,-1 -1,-1 z"
   id="path4424"
   style="fill:#e0e0d1;fill-opacity:1" />
	<path
   d="m 15.79,44.29 c -0.18,0.18 -0.29,0.439 -0.29,0.71 0,0.27 0.1,0.52 0.29,0.71 0.19,0.18 0.45,0.29 0.71,0.29 0.27,0 0.52,-0.11 0.71,-0.29 0.18,-0.19 0.29,-0.45 0.29,-0.71 0,-0.271 -0.11,-0.521 -0.29,-0.7 -0.37,-0.38 -1.04,-0.38 -1.42,-0.01 z"
   id="path4426"
   style="fill:#e0e0d1;fill-opacity:1" />
	<path
   d="m 42.79,23.29 c -0.18,0.189 -0.29,0.449 -0.29,0.71 0,0.26 0.11,0.52 0.29,0.71 0.19,0.18 0.45,0.29 0.71,0.29 0.26,0 0.52,-0.11 0.71,-0.29 0.19,-0.19 0.29,-0.45 0.29,-0.71 0,-0.261 -0.1,-0.521 -0.29,-0.71 -0.38,-0.37 -1.04,-0.37 -1.42,0 z"
   id="path4428"
   style="fill:#e0e0d1;fill-opacity:1" />
	<path
   d="m 39.21,38.71 c 0.18,-0.19 0.29,-0.45 0.29,-0.71 0,-0.261 -0.11,-0.521 -0.29,-0.71 -0.38,-0.37 -1.05,-0.37 -1.42,0 -0.18,0.189 -0.29,0.449 -0.29,0.71 0,0.26 0.11,0.52 0.29,0.71 0.19,0.189 0.44,0.29 0.71,0.29 0.27,0 0.52,-0.11 0.71,-0.29 z"
   id="path4430"
   style="fill:#e0e0d1;fill-opacity:1" />
	<path
   d="m 42.79,37.29 c -0.18,0.189 -0.29,0.449 -0.29,0.71 0,0.26 0.11,0.52 0.29,0.71 0.19,0.18 0.44,0.29 0.71,0.29 0.27,0 0.52,-0.11 0.71,-0.29 0.18,-0.19 0.29,-0.45 0.29,-0.71 0,-0.261 -0.11,-0.521 -0.29,-0.71 -0.37,-0.37 -1.05,-0.37 -1.42,0 z"
   id="path4432"
   style="fill:#e0e0d1;fill-opacity:1" />
</g>
<g
   id="g4436">
</g>
<g
   id="g4438">
</g>
<g
   id="g4440">
</g>
<g
   id="g4442">
</g>
<g
   id="g4444">
</g>
<g
   id="g4446">
</g>
<g
   id="g4448">
</g>
<g
   id="g4450">
</g>
<g
   id="g4452">
</g>
<g
   id="g4454">
</g>
<g
   id="g4456">
</g>
<g
   id="g4458">
</g>
<g
   id="g4460">
</g>
<g
   id="g4462">
</g>
<g
   id="g4464">
</g>
</svg>
