<?xml version="1.0" encoding="UTF-8" standalone="no"?>
<!-- Generator: Adobe Illustrator 19.0.0, SVG Export Plug-In . SVG Version: 6.00 Build 0)  -->

<svg
   version="1.1"
   id="Layer_1"
   x="0px"
   y="0px"
   viewBox="0 0 494.885 494.885"
   style="enable-background:new 0 0 494.885 494.885;"
   xml:space="preserve"
   sodipodi:docname="music.svg"
   inkscape:version="1.2.1 (9c6d41e410, 2022-07-14)"
   xmlns:inkscape="http://www.inkscape.org/namespaces/inkscape"
   xmlns:sodipodi="http://sodipodi.sourceforge.net/DTD/sodipodi-0.dtd"
   xmlns="http://www.w3.org/2000/svg"
   xmlns:svg="http://www.w3.org/2000/svg"><defs
   id="defs1088" /><sodipodi:namedview
   id="namedview1086"
   pagecolor="#ffffff"
   bordercolor="#e0e0d1"
   borderopacity="0.25"
   inkscape:showpageshadow="2"
   inkscape:pageopacity="0.0"
   inkscape:pagecheckerboard="0"
   inkscape:deskcolor="#d1d1d1"
   showgrid="false"
   inkscape:zoom="1.5862271"
   inkscape:cx="247.4425"
   inkscape:cy="247.4425"
   inkscape:window-width="1920"
   inkscape:window-height="1001"
   inkscape:window-x="-9"
   inkscape:window-y="-9"
   inkscape:window-maximized="1"
   inkscape:current-layer="g1053" />
<g
   id="g1053">
	<g
   id="g1051"
   style="fill:#e0e0d1;fill-opacity:1">
		<path
   d="M163.205,76.413v293.301c-3.434-3.058-7.241-5.867-11.486-8.339c-21.38-12.452-49.663-15.298-77.567-7.846    c-49.038,13.096-80.904,54.519-71.038,92.337c4.019,15.404,14.188,28.221,29.404,37.087c13.553,7.894,29.87,11.933,47.115,11.933    c9.962,0,20.231-1.356,30.447-4.087c42.74-11.406,72.411-44.344,72.807-77.654h0.011v-0.162c0.002-0.166,0-0.331,0-0.496V187.072    l290.971-67.3v178.082c-3.433-3.055-7.238-5.863-11.481-8.334c-21.385-12.452-49.654-15.308-77.567-7.846    c-49.038,13.087-80.904,54.519-71.038,92.356c4.019,15.385,14.183,28.212,29.404,37.067c13.548,7.894,29.875,11.933,47.115,11.933    c9.962,0,20.231-1.356,30.452-4.087c42.74-11.413,72.411-44.346,72.804-77.654h0.004v-0.065c0.003-0.236,0.001-0.469,0-0.704V0    L163.205,76.413z M104.999,471.779c-22.543,6.038-45.942,3.846-62.572-5.846c-10.587-6.163-17.591-14.817-20.255-25.038    c-7.144-27.375,18.452-58.029,57.062-68.346c8.409-2.25,16.938-3.346,25.188-3.346c13.87,0,26.962,3.115,37.389,9.192    c10.587,6.163,17.591,14.817,20.255,25.029c0.809,3.102,1.142,6.248,1.139,9.4v0.321h0.014    C162.99,437.714,139.082,462.678,104.999,471.779z M182.898,166.853V92.067l290.971-67.298v74.784L182.898,166.853z     M415.677,399.923c-22.558,6.038-45.942,3.837-62.587-5.846c-10.587-6.163-17.587-14.817-20.25-25.019    c-7.144-27.385,18.452-58.058,57.058-68.365c8.414-2.25,16.942-3.346,25.192-3.346c13.875,0,26.962,3.115,37.385,9.192    c10.596,6.163,17.596,14.817,20.26,25.029v0.01c0.796,3.05,1.124,6.144,1.135,9.244v0.468h0.02    C473.668,365.851,449.763,390.814,415.677,399.923z"
   id="path1049"
   style="fill:#e0e0d1;fill-opacity:1" />
	</g>
</g>
<g
   id="g1055">
</g>
<g
   id="g1057">
</g>
<g
   id="g1059">
</g>
<g
   id="g1061">
</g>
<g
   id="g1063">
</g>
<g
   id="g1065">
</g>
<g
   id="g1067">
</g>
<g
   id="g1069">
</g>
<g
   id="g1071">
</g>
<g
   id="g1073">
</g>
<g
   id="g1075">
</g>
<g
   id="g1077">
</g>
<g
   id="g1079">
</g>
<g
   id="g1081">
</g>
<g
   id="g1083">
</g>
</svg>
