<?xml version="1.0" encoding="UTF-8" standalone="no"?>
<!-- Generator: Adobe Illustrator 19.0.0, SVG Export Plug-In . SVG Version: 6.00 Build 0)  -->

<svg
   version="1.1"
   id="Capa_1"
   x="0px"
   y="0px"
   viewBox="0 0 58 58"
   style="enable-background:new 0 0 58 58;"
   xml:space="preserve"
   sodipodi:docname="pictures.svg"
   inkscape:version="1.2.1 (9c6d41e410, 2022-07-14)"
   xmlns:inkscape="http://www.inkscape.org/namespaces/inkscape"
   xmlns:sodipodi="http://sodipodi.sourceforge.net/DTD/sodipodi-0.dtd"
   xmlns="http://www.w3.org/2000/svg"
   xmlns:svg="http://www.w3.org/2000/svg"><defs
   id="defs9973">
	
	
	
</defs><sodipodi:namedview
   id="namedview9971"
   pagecolor="#ffffff"
   bordercolor="#e0e0d1"
   borderopacity="0.25"
   inkscape:showpageshadow="2"
   inkscape:pageopacity="0.0"
   inkscape:pagecheckerboard="0"
   inkscape:deskcolor="#d1d1d1"
   showgrid="false"
   inkscape:zoom="14.034483"
   inkscape:cx="13.003685"
   inkscape:cy="34.807125"
   inkscape:window-width="1920"
   inkscape:window-height="1001"
   inkscape:window-x="-9"
   inkscape:window-y="-9"
   inkscape:window-maximized="1"
   inkscape:current-layer="Capa_1" />
<g
   id="g4859"
   style="fill:#e0e0d1"><path
     d="M 57,0.08599519 H 1 c -0.552,0 -1,0.5619374 -1,1.25713061 V 56.656875 c 0,0.695192 0.448,1.25713 1,1.25713 h 56 c 0.552,0 1,-0.561938 1,-1.25713 V 1.3431258 C 58,0.64793259 57.552,0.08599519 57,0.08599519 Z M 56,55.399743 H 2 V 2.6002564 h 54 z"
     id="path9932"
     style="fill:#e0e0d1;fill-opacity:1;stroke-width:1.12122" /><path
     d="m 16,28.138 c 3.071,0 5.569,-2.498 5.569,-5.568 C 21.569,19.498 19.071,17 16,17 c -3.071,0 -5.569,2.498 -5.569,5.569 0,3.071 2.498,5.569 5.569,5.569 z M 16,19 c 1.968,0 3.569,1.602 3.569,3.569 0,1.967 -1.601,3.569 -3.569,3.569 -1.968,0 -3.569,-1.601 -3.569,-3.568 C 12.431,20.603 14.032,19 16,19 Z"
     id="path9934"
     style="fill:#e0e0d1;fill-opacity:1" /><path
     d="m 7,46 c 0.234,0 0.47,-0.082 0.66,-0.249 L 23.973,31.389 34.275,41.69 c 0.391,0.391 1.023,0.391 1.414,0 0.391,-0.391 0.391,-1.023 0,-1.414 l -4.807,-4.807 9.181,-10.054 11.261,10.323 c 0.407,0.373 1.04,0.345 1.413,-0.062 0.373,-0.407 0.346,-1.04 -0.062,-1.413 l -12,-11 c -0.196,-0.179 -0.457,-0.268 -0.72,-0.262 -0.265,0.012 -0.515,0.129 -0.694,0.325 L 29.467,34.053 24.724,29.31 C 24.35,28.937 23.752,28.918 23.356,29.266 L 6.339,44.249 C 5.924,44.614 5.884,45.246 6.249,45.661 6.447,45.886 6.723,46 7,46 Z"
     id="path9936"
     style="fill:#e0e0d1;fill-opacity:1" /></g>
<g
   id="g9940">
</g>
<g
   id="g9942">
</g>
<g
   id="g9944">
</g>
<g
   id="g9946">
</g>
<g
   id="g9948">
</g>
<g
   id="g9950">
</g>
<g
   id="g9952">
</g>
<g
   id="g9954">
</g>
<g
   id="g9956">
</g>
<g
   id="g9958">
</g>
<g
   id="g9960">
</g>
<g
   id="g9962">
</g>
<g
   id="g9964">
</g>
<g
   id="g9966">
</g>
<g
   id="g9968">
</g>
</svg>
