<?xml version="1.0" encoding="UTF-8" standalone="no"?>
<!-- Generator: Adobe Illustrator 19.0.0, SVG Export Plug-In . SVG Version: 6.00 Build 0)  -->

<svg
   version="1.1"
   id="Capa_1"
   x="0px"
   y="0px"
   viewBox="0 0 58 58"
   style="enable-background:new 0 0 58 58;"
   xml:space="preserve"
   sodipodi:docname="videos.svg"
   inkscape:version="1.2.1 (9c6d41e410, 2022-07-14)"
   xmlns:inkscape="http://www.inkscape.org/namespaces/inkscape"
   xmlns:sodipodi="http://sodipodi.sourceforge.net/DTD/sodipodi-0.dtd"
   xmlns="http://www.w3.org/2000/svg"
   xmlns:svg="http://www.w3.org/2000/svg"><defs
   id="defs13974">
	
	
</defs><sodipodi:namedview
   id="namedview13972"
   pagecolor="#ffffff"
   bordercolor="#e0e0d1"
   borderopacity="0.25"
   inkscape:showpageshadow="2"
   inkscape:pageopacity="0.0"
   inkscape:pagecheckerboard="0"
   inkscape:deskcolor="#d1d1d1"
   showgrid="false"
   inkscape:zoom="14.034483"
   inkscape:cx="13.074938"
   inkscape:cy="23.54914"
   inkscape:window-width="1920"
   inkscape:window-height="1001"
   inkscape:window-x="-9"
   inkscape:window-y="-9"
   inkscape:window-maximized="1"
   inkscape:current-layer="Capa_1" />
<path
   d="m 36.537,26.863315 -11,-7.3795 C 25.229,19.278243 24.839,19.264538 24.518,19.449025 24.199,19.634567 24,19.988783 24,20.373571 v 14.759001 c 0,0.384788 0.199,0.739004 0.519,0.924546 0.15,0.08644 0.315,0.129668 0.481,0.129668 0.187,0 0.374,-0.05587 0.537,-0.164458 l 11,-7.3795 C 36.825,28.448853 37,28.113613 37,27.753071 37,27.39253 36.825,27.05729 36.537,26.863315 Z M 26,33.212847 V 22.293296 l 8.137,5.459775 z"
   id="path13935"
   style="fill:#e0e0d1;fill-opacity:1;stroke-width:1.02675" /><path
   d="M 57,0.01474217 H 47 11 1 c -0.552,0 -1,0.56332219 -1,1.26022863 V 15.137486 29 42.862515 56.72503 c 0,0.696907 0.448,1.260228 1,1.260228 h 10 36 10 c 0.552,0 1,-0.563321 1,-1.260228 V 42.862515 29 15.137486 1.2749708 C 58,0.57806436 57.552,0.01474217 57,0.01474217 Z M 10,27.739772 H 2 V 16.397715 h 8 z m -8,2.520457 h 8 V 41.602286 H 2 Z M 12,42.862515 V 29 15.137486 2.5351994 H 46 V 15.137486 29 42.862515 55.464801 H 12 Z M 56,27.739772 H 48 V 16.397715 h 8 z m -8,2.520457 h 8 V 41.602286 H 48 Z M 56,2.5351994 V 13.877257 H 48 V 2.5351994 Z m -54,0 h 8 V 13.877257 H 2 Z M 2,55.464801 V 44.122744 h 8 v 11.342057 z m 54,0 H 48 V 44.122744 h 8 z"
   id="path13937"
   style="fill:#e0e0d1;fill-opacity:1;stroke-width:1.1226" />
<g
   id="g13941">
</g>
<g
   id="g13943">
</g>
<g
   id="g13945">
</g>
<g
   id="g13947">
</g>
<g
   id="g13949">
</g>
<g
   id="g13951">
</g>
<g
   id="g13953">
</g>
<g
   id="g13955">
</g>
<g
   id="g13957">
</g>
<g
   id="g13959">
</g>
<g
   id="g13961">
</g>
<g
   id="g13963">
</g>
<g
   id="g13965">
</g>
<g
   id="g13967">
</g>
<g
   id="g13969">
</g>
</svg>
